<svg id="visual" viewBox="0 0 900 600" width="900" height="600" xmlns="http://www.w3.org/2000/svg" xmlns:xlink="http://www.w3.org/1999/xlink" version="1.1"><rect x="0" y="0" width="900" height="600" fill="#3a405b"></rect><path d="M0 456L11.5 456C23 456 46 456 69 460.5C92 465 115 474 138.2 478.3C161.3 482.7 184.7 482.3 207.8 477.3C231 472.3 254 462.7 277 458C300 453.3 323 453.7 346 460.2C369 466.7 392 479.3 415.2 482.8C438.3 486.3 461.7 480.7 484.8 475.2C508 469.7 531 464.3 554 461.2C577 458 600 457 623 462.3C646 467.7 669 479.3 692.2 481.8C715.3 484.3 738.7 477.7 761.8 470.8C785 464 808 457 831 456.2C854 455.3 877 460.7 888.5 463.3L900 466L900 601L888.5 601C877 601 854 601 831 601C808 601 785 601 761.8 601C738.7 601 715.3 601 692.2 601C669 601 646 601 623 601C600 601 577 601 554 601C531 601 508 601 484.8 601C461.7 601 438.3 601 415.2 601C392 601 369 601 346 601C323 601 300 601 277 601C254 601 231 601 207.8 601C184.7 601 161.3 601 138.2 601C115 601 92 601 69 601C46 601 23 601 11.5 601L0 601Z" fill="#e4e7f0"></path><path d="M0 515L11.5 513.8C23 512.7 46 510.3 69 509.8C92 509.3 115 510.7 138.2 509.3C161.3 508 184.7 504 207.8 504.7C231 505.3 254 510.7 277 509.7C300 508.7 323 501.3 346 497.5C369 493.7 392 493.3 415.2 495C438.3 496.7 461.7 500.3 484.8 502.5C508 504.7 531 505.3 554 505.3C577 505.3 600 504.7 623 503.3C646 502 669 500 692.2 498.5C715.3 497 738.7 496 761.8 499.5C785 503 808 511 831 512.7C854 514.3 877 509.7 888.5 507.3L900 505L900 601L888.5 601C877 601 854 601 831 601C808 601 785 601 761.8 601C738.7 601 715.3 601 692.2 601C669 601 646 601 623 601C600 601 577 601 554 601C531 601 508 601 484.8 601C461.7 601 438.3 601 415.2 601C392 601 369 601 346 601C323 601 300 601 277 601C254 601 231 601 207.8 601C184.7 601 161.3 601 138.2 601C115 601 92 601 69 601C46 601 23 601 11.5 601L0 601Z" fill="#adb3c6"></path><path d="M0 540L11.5 537C23 534 46 528 69 526C92 524 115 526 138.2 525.2C161.3 524.3 184.7 520.7 207.8 521.2C231 521.7 254 526.3 277 527C300 527.7 323 524.3 346 522.8C369 521.3 392 521.7 415.2 525.3C438.3 529 461.7 536 484.8 537C508 538 531 533 554 530.5C577 528 600 528 623 531C646 534 669 540 692.2 540.3C715.3 540.7 738.7 535.3 761.8 530.5C785 525.7 808 521.3 831 522C854 522.7 877 528.3 888.5 531.2L900 534L900 601L888.5 601C877 601 854 601 831 601C808 601 785 601 761.8 601C738.7 601 715.3 601 692.2 601C669 601 646 601 623 601C600 601 577 601 554 601C531 601 508 601 484.8 601C461.7 601 438.3 601 415.2 601C392 601 369 601 346 601C323 601 300 601 277 601C254 601 231 601 207.8 601C184.7 601 161.3 601 138.2 601C115 601 92 601 69 601C46 601 23 601 11.5 601L0 601Z" fill="#79829d"></path><path d="M0 559L11.5 557.8C23 556.7 46 554.3 69 555.7C92 557 115 562 138.2 565.5C161.3 569 184.7 571 207.8 570.2C231 569.3 254 565.7 277 563.7C300 561.7 323 561.3 346 561.5C369 561.7 392 562.3 415.2 561.5C438.3 560.7 461.7 558.3 484.8 558.8C508 559.3 531 562.7 554 561.8C577 561 600 556 623 553.2C646 550.3 669 549.7 692.2 549.8C715.3 550 738.7 551 761.8 554C785 557 808 562 831 565.7C854 569.3 877 571.7 888.5 572.8L900 574L900 601L888.5 601C877 601 854 601 831 601C808 601 785 601 761.8 601C738.7 601 715.3 601 692.2 601C669 601 646 601 623 601C600 601 577 601 554 601C531 601 508 601 484.8 601C461.7 601 438.3 601 415.2 601C392 601 369 601 346 601C323 601 300 601 277 601C254 601 231 601 207.8 601C184.7 601 161.3 601 138.2 601C115 601 92 601 69 601C46 601 23 601 11.5 601L0 601Z" fill="#485375"></path></svg>